<svg version="1" xmlns="http://www.w3.org/2000/svg" width="585.333" height="585.333" viewBox="0 0 439.000000 439.000000"><path d="M246.2 146.5l-15 14.5h-28.4c-20.8 0-28.7.3-29.6 1.2-1.9 1.9-1.4 4.6 1.8 9.4l3.1 4.4H164c-7.8 0-15 .5-16.1 1-1 .6-1.9 2.1-1.9 3.4 0 1.3 5.2 9.7 12.1 19.7 6.7 9.6 12.3 17.9 12.5 18.4.2.6-5.6 7-13 14.4l-13.3 13.3-36.7 10.9c-20.2 6-37.2 11.1-37.7 11.4-.5.4-.9 1.9-.9 3.5 0 2.3.7 3 3.8 4.3 7.9 3.2 36 10.9 72.9 20.2L184 306h52.2l17.7-10.7c9.7-5.9 18.5-11.7 19.5-12.8 1.1-1.1 9-18.7 17.6-39l15.7-37 16.9-11.7c28.8-20 29.4-20.5 29.4-23.2 0-3.8-2.7-4.6-16.4-4.6h-12.5l.5-3.3c.5-3-.2-3.9-13.9-17.5L296.2 132h-34.9l-15.1 14.5zm57.2 5.2c6.1 5.9 11.3 11.1 11.5 11.6.2.5-10.2 25.5-23 55.5l-23.4 54.6-.5-47.3c-.5-45.3-.6-47.3-2.4-48.7-1.5-1.1-6-1.4-19.5-1.4l-17.6-.1 18-17.4 18-17.4 13.9-.1h13.9l11.1 10.7zM218.5 173l-2.9 3h-27.2l-1.7-3-1.8-3h36.5l-2.9 3zm115 3.9c-2.3 2.1-18.8 13.2-19.1 12.8-.3-.2.9-3.4 2.5-7.1l3-6.6h7.3c4.3 0 6.8.4 6.3.9zM259 233.4v48.3l-11.7 7.1c-6.4 3.9-11.8 7-11.9 6.9-4.9-6.8-76.4-109.9-76.4-110.2 0-.3 22.5-.5 50-.5h50v48.4zm-58.1 28.1c13.3 19 24.1 34.7 24.1 35 0 .3-9 .5-19.9.5h-19.9l-31.4-7.6c-17.2-4.2-31.5-7.9-31.8-8.1-.4-.4 53.7-54 54.7-54.3.1 0 11 15.5 24.2 34.5zM121 269c-5.2 4.9-10.1 9-10.8 9-2 0-20.2-5.3-20.2-5.9 0-.7 36.6-11.8 39-11.9.8-.1-2.8 3.9-8 8.8z"/></svg>